<?xml version="1.0" standalone="no"?>
<!DOCTYPE svg PUBLIC "-//W3C//DTD SVG 20010904//EN"
 "http://www.w3.org/TR/2001/REC-SVG-20010904/DTD/svg10.dtd">
<svg version="1.0" xmlns="http://www.w3.org/2000/svg"
 width="552.000000pt" height="552.000000pt" viewBox="0 0 552.000000 552.000000"
 preserveAspectRatio="xMidYMid meet">
<metadata>
Created by potrace 1.11, written by Peter Selinger 2001-2013
</metadata>
<g transform="translate(0.000000,552.000000) scale(0.100000,-0.100000)"
fill="#000000" stroke="none">
<path d="M2995 4140 l-100 -5 0 -337 1 -338 -98 0 -98 0 1 328 c0 180 0 333 0
340 -1 9 -79 12 -355 12 l-354 0 2 -220 c0 -121 -1 -220 -4 -220 -3 0 -16 14
-30 31 -14 17 -52 60 -85 94 -33 35 -78 83 -100 107 -57 63 -101 92 -173 117
-77 26 -93 26 -174 1 -50 -15 -76 -31 -116 -71 -29 -28 -52 -58 -52 -65 0 -15
-26 -20 -32 -5 -1 4 -21 19 -43 33 -119 74 -280 58 -378 -37 -26 -26 -47 -53
-47 -61 0 -8 -4 -14 -9 -14 -16 0 -44 -127 -38 -174 6 -42 5 -44 -21 -52 -15
-4 -30 -8 -33 -8 -22 -3 -99 -64 -119 -94 -14 -20 -28 -39 -31 -42 -3 -3 -9
-18 -13 -33 -5 -21 -11 -27 -22 -23 -61 23 -172 12 -245 -25 -46 -23 -117
-104 -130 -149 -50 -173 -11 -259 226 -504 33 -34 75 -80 93 -101 93 -110 124
-144 205 -228 48 -50 87 -93 87 -97 0 -3 -28 -12 -62 -19 -82 -17 -108 -31
-168 -93 -59 -61 -74 -103 -75 -209 0 -70 10 -107 38 -144 45 -60 129 -130
141 -118 3 3 6 1 6 -5 0 -7 3 -11 8 -10 4 1 23 -2 42 -5 54 -11 91 -17 139
-23 25 -3 52 -9 60 -13 16 -8 51 -16 126 -26 89 -13 162 -27 192 -36 35 -11
44 -13 158 -29 44 -6 114 -20 157 -31 42 -10 87 -19 100 -19 15 0 51 -26 103
-75 83 -78 117 -95 190 -95 68 0 108 17 167 72 32 29 76 69 98 88 83 71 224
200 314 286 23 22 53 48 66 57 25 17 155 136 270 247 86 82 107 146 80 239 -9
34 -83 148 -104 163 -6 4 -7 8 -2 8 5 0 -1 11 -14 24 -31 34 -39 86 -40 254
l0 142 94 0 c66 0 95 -4 98 -12 2 -7 4 -177 4 -376 l-1 -364 840 5 c462 3 854
8 870 10 17 3 66 10 110 16 336 47 557 184 637 395 77 202 -21 440 -223 540
-61 30 -173 63 -319 93 -24 5 -23 6 12 18 97 35 197 94 247 146 48 51 89 144
95 216 12 151 -87 301 -259 390 -60 31 -158 67 -211 78 -64 14 -204 34 -274
39 -41 4 -104 9 -140 12 -84 7 -1154 11 -1285 4z m1108 -487 c116 -20 171 -53
206 -123 44 -86 -21 -193 -129 -213 -14 -3 -45 -10 -70 -15 -25 -6 -69 -13
-99 -16 -30 -3 -55 -7 -57 -9 -2 -2 11 -47 28 -100 l31 -97 86 -1 c260 -3 375
-36 415 -119 6 -14 11 -34 10 -45 0 -11 -2 -32 -3 -47 -2 -44 -66 -103 -131
-121 -90 -26 -123 -28 -405 -34 l-270 -5 2 423 c0 233 2 450 2 482 l1 58 153
-2 c83 -1 187 -9 230 -16z"/>
</g>
</svg>
